<?xml version="1.0" encoding="UTF-8"?>
<svg id="Lager_1" data-name="Lager 1" xmlns="http://www.w3.org/2000/svg" viewBox="0 0 77.54 97.29">
  <defs>
    <style>
      .cls-1 {
        fill: #1f6662;
      }

      .cls-1, .cls-2, .cls-3, .cls-4, .cls-5, .cls-6 {
        stroke-width: 0px;
      }

      .cls-2 {
        fill: #316e72;
      }

      .cls-3 {
        fill: #da4c51;
      }

      .cls-4 {
        fill: #90bfae;
      }

      .cls-5 {
        fill: #e0684a;
      }

      .cls-6 {
        fill: #55aa9a;
      }
    </style>
  </defs>
  <path class="cls-4" d="m47.25,88.69c-.16-3.68-1.67-5.54-4.12-6.94-2.8-1.61-5.42-3.52-8.2-5.18-1.49-.89-1.25-1.77-.55-3.04.82-1.47,1.61-1.49,2.93-.61,3.62,2.42,7.33,4.7,10.98,7.07.5.33,1.1.78,1.27,1.3,1.74,5.24,3.4,10.5,5.05,15.65-1.25.78-1.8.08-2.37-.28-12-7.56-23.98-15.15-36-22.67-1.68-1.05-2.71-2.28-3.28-4.23-1.63-5.58-3.5-11.09-5.28-16.62-.57-1.76-1.01-3.52-2.32-5-.88-.99-.76-2.34-.01-3.47.8-1.22,2.07-1.35,3.33-1.01,1.35.36,2.04,1.43,2.15,2.75.6,7.75,4.22,14.67,6.14,22.05.22.85.69,1.54,1.49,2.04,9.45,5.96,18.89,11.93,28.8,18.2Z"/>
  <path class="cls-6" d="m23.68,30.33c.22-.17.44-.35.66-.52.28,1.36.55,2.72.83,4.08-.42.44-1.07.82-1.23,1.34-.64,2.13,3.9,12.91,5.77,14.25,3.49,2.49,7.71,3.98,10.51,7.43-.28,1.08-.57,2.16-.85,3.24-2.98-1.76-5.96-3.53-9.32-5.52.17,2.89.97,4.89,3.3,6.29,3.2,1.92,6.26,4.06,9.45,5.99,1.56.95,1.49,1.87.66,3.33-1,1.73-1.88.99-2.98.28-3.66-2.35-7.32-4.71-11.05-6.95-1.43-.86-1.97-2.13-2.43-3.56-2.32-7.31-4.44-14.68-7.06-21.89-1.32-3.63-.78-5.86,2.91-7.16.28-.21.56-.41.84-.62Z"/>
  <path class="cls-4" d="m14.09,31.79c3.26,10.5,6.46,21.02,9.8,31.49.79,2.48,3.13,3.44,5.46,4,1.69.4,2.75,1.29,2.92,2.91.13,1.34-.72,2.39-1.96,2.9-1.65.67-2.89-.05-3.79-1.46-.13-.21-.24-.52-.43-.6-6.51-2.75-6.93-9.12-8.75-14.61-2.45-7.4-4.66-14.88-7.2-22.24-.98-2.85-.63-4.75,2.29-5.89-.02,1.43.14,2.78,1.66,3.5Z"/>
  <path class="cls-2" d="m36.43,21.29c1.31-1.75,2.66-1.78,4.41-.44,5.25,3.99,10.54,7.93,15.92,11.74,1.54,1.09,1.71,2.13,1.15,3.75-2.19,6.31-4.28,12.67-6.47,18.98-.34.96-.12,2.84-2.15,2.08-1.73-.65-2.46-1.67-1.7-3.71,1.89-5.1,3.43-10.33,5.32-15.43.73-1.97.45-3.12-1.29-4.34-4.17-2.93-8.2-6.05-12.29-9.1-1.71-.56-3.37-1.17-2.89-3.51Z"/>
  <path class="cls-1" d="m67.33,46.65c1.56-4.81,3.01-9.67,4.73-14.42.79-2.17.3-3.42-1.59-4.61-2.2-1.39-4.25-3.02-6.31-4.61-.81-.62-2.17-1.2-.83-2.56.87-.88,1.62-1.95,3.1-.83,3.37,2.54,6.77,5.04,10.2,7.5,1.01.72,1.05,1.57.69,2.59-2.41,6.87-4.81,13.74-7.22,20.61-1.54-.76-1.71-2.55-2.78-3.66Z"/>
  <path class="cls-1" d="m49.91,17.74c5.44,3.92,10.83,7.88,16.33,11.72,1.66,1.16,1.8,2.32,1.15,4.09-1.28,3.47-2.29,7.04-3.56,10.52-.33.91-.1,2.89-2.23,1.94-1.56-.69-2.37-1.67-1.68-3.49.92-2.43,1.62-4.94,2.61-7.33.78-1.89.5-3.07-1.29-4.31-3.67-2.52-7.15-5.33-10.71-8.01,1.86-1.96-.67-3.38-.63-5.12Z"/>
  <path class="cls-4" d="m18.37,18.88c-4.1,2.96-8.15,5.99-12.33,8.83-1.47,1-1.51,2-1.01,3.41.74,2.09,1.4,4.2,2.08,6.31.44,1.35.3,2.17-1.38,2.71-1.76.56-2.16-.17-2.58-1.52-.8-2.59-1.52-5.22-2.58-7.71-1.12-2.62-.58-4.2,1.9-5.73,4.19-2.59,8.14-5.56,12.2-8.37,1.24.69,2.48,1.38,3.71,2.06Z"/>
  <path class="cls-1" d="m36.04,1.71c1.72-2.25,3.4-2.16,5.61-.4,4.26,3.4,8.74,6.52,13.13,9.74,1.19.87,2.29,1.85,3.85,2.13,1.68.3,2.6,1.43,2.52,3.14-.06,1.19-.72,2.13-1.87,2.54-1.64.57-2.68-.21-3.83-1.43-4.75-5.1-10.82-8.54-16.44-12.55-.24-.17-.73,0-1.1.02-.19-1.32-.74-2.43-1.88-3.2Z"/>
  <path class="cls-6" d="m39.36,60.15c.28-1.08.57-2.16.85-3.24,1.51-.18,2.56.79,3.69,1.5,5.24,3.29,10.48,6.58,15.7,9.91,4.41,2.81,4.4,2.83,1.42,8.09-.67-2.91-2.77-4.11-4.85-5.41-5.64-3.56-11.22-7.22-16.82-10.84Z"/>
  <path class="cls-2" d="m49.91,17.74c-.05,1.74,2.49,3.16.63,5.12-3.01-2.13-6.11-4.14-8.99-6.43-1.91-1.53-3.39-1.96-5.4-.13-1.62,1.47-3.64,2.49-5.48,3.71-.32-1.3-.65-2.59-.97-3.89.07-.1.13-.22.23-.3q9.2-7.11,18.53.88c.34.27.69.54,1.03.81.19-.01.33.06.43.23Z"/>
  <path class="cls-6" d="m56.77,90.06c-1.08-3.3-2.05-5.82-2.72-8.41-.77-2.96-2.51-4.78-5.5-5.33-1.71-.31-2.74-1.21-2.9-2.9-.12-1.37.6-2.47,1.9-2.88,1.56-.49,2.76.01,3.86,1.42,2.04,2.62,5.62,3.6,6.51,7.69.76,3.51.64,6.48-1.15,10.41Z"/>
  <path class="cls-2" d="m67.33,46.65c1.07,1.11,1.24,2.9,2.78,3.66-.06.26-.12.53-.17.79-.19.25-.38.5-.56.75-1.27,4.21-2.48,8.45-3.86,12.63-.27.8-.09,2.66-1.92,1.9-1.35-.56-2.7-1.2-1.94-3.28,1.99-5.45,3.8-10.96,5.67-16.45Z"/>
  <path class="cls-6" d="m36.43,21.29c-.48,2.34,1.18,2.94,2.89,3.51-4.15,1.44-7.17,4.62-10.77,6.89-1.14.72-2.25,1.46-3.38,2.19-.28-1.36-.55-2.72-.83-4.08,4.03-2.84,8.06-5.68,12.09-8.52Z"/>
  <path class="cls-2" d="m56.65,62.06c-1.15-.72-2.88-1.19-2.15-3.2.88-2.44,1.53-4.88,1.64-7.52.07-1.65,1.68-2.45,3.34-2.13,1.89.37,3.08,2.02,2.25,3.55-1.53,2.82-2.82,5.69-3.81,8.72-.15.46-.59.77-1.27.58Z"/>
  <path class="cls-6" d="m18.37,18.88c-1.24-.69-2.47-1.38-3.71-2.06,3.98-2.83,7.95-5.66,11.93-8.48.22,1.74,1.18,2.62,2.98,2.53-3.73,2.67-7.47,5.35-11.2,8.02Z"/>
  <path class="cls-2" d="m29.57,10.86c-1.8.1-2.76-.79-2.98-2.53,3.15-2.21,6.3-4.42,9.46-6.63,1.14.77,1.69,1.88,1.88,3.2-2.35,1.92-4.69,3.83-7.39,5.26-.29.21-.57.43-.86.64,0,0-.11.06-.11.06Z"/>
  <path class="cls-6" d="m14.09,31.79c-1.52-.72-1.68-2.07-1.66-3.5,1.67-1.24,3.34-2.5,5.03-3.73.87-.63,1.76-1.57,2.7,0,.72,1.21,1.5,2.28-.25,3.35-1.99,1.22-3.88,2.58-5.82,3.88Z"/>
  <path class="cls-6" d="m29.69,16.12c.32,1.3.65,2.59.97,3.89,0,0-.06-.04-.06-.04-.7-.04-1.26.13-1.43.91,0,0,.11.1.11.1-.15.02-.3.05-.45.08.05.08.11.17.16.25-.56,1.86-1.61,3.13-3.76,2.69-1.33-.27-2.19-1.22-2.28-2.6-.14-2.19,1.26-2.88,3.17-3.36,1.27-.32,2.39-1.26,3.57-1.93Z"/>
  <path class="cls-6" d="m29.18,20.89c.17-.78.73-.96,1.43-.91-.48.3-.95.61-1.43.91Z"/>
  <path class="cls-5" d="m29.67,10.81c.29-.21.57-.43.86-.64-.29.21-.57.43-.86.64Z"/>
  <path class="cls-3" d="m49.48,17.51c-.34-.27-.69-.54-1.03-.81.34.27.69.54,1.03.81Z"/>
  <path class="cls-6" d="m28.99,21.32c-.05-.08-.11-.17-.16-.25.15-.03.3-.05.45-.08-.03.17-.13.28-.29.33Z"/>
  <path class="cls-5" d="m23.68,30.33c-.28.21-.56.41-.84.62.28-.21.56-.41.84-.62Z"/>
</svg>