<?xml version="1.0" standalone="no"?>
<!DOCTYPE svg PUBLIC "-//W3C//DTD SVG 20010904//EN"
 "http://www.w3.org/TR/2001/REC-SVG-20010904/DTD/svg10.dtd">
<svg version="1.0" xmlns="http://www.w3.org/2000/svg"
 width="700.000000pt" height="700.000000pt" viewBox="0 0 700.000000 700.000000"
 preserveAspectRatio="xMidYMid meet">
<metadata>
Created by potrace 1.14, written by Peter Selinger 2001-2017
</metadata>
<g transform="translate(0.000000,700.000000) scale(0.100000,-0.100000)"
fill="#000000" stroke="none">
<path d="M5665 6984 c-146 -24 -304 -86 -432 -171 -76 -49 -229 -202 -280
-278 -46 -69 -104 -182 -123 -238 l-12 -38 -43 40 c-282 260 -688 351 -1049
237 -397 -126 -683 -468 -741 -884 -16 -112 -7 -274 21 -387 82 -331 325 -613
632 -737 35 -14 63 -29 64 -33 1 -7 -183 -195 -405 -414 l-75 -74 -34 26
c-217 163 -520 74 -609 -178 -42 -120 -14 -278 66 -373 l24 -28 -1258 -1260
c-1366 -1367 -1299 -1294 -1318 -1425 -34 -222 128 -427 352 -446 71 -6 168
16 229 52 22 13 113 97 202 185 l160 161 306 -304 c336 -334 375 -365 461
-355 115 14 248 132 274 242 8 40 3 127 -13 199 -50 232 -53 310 -15 385 24
47 168 190 219 217 61 32 154 31 322 -3 223 -47 301 -36 389 50 106 104 138
207 91 299 -25 48 -73 100 -374 401 -141 140 -256 259 -256 264 0 5 175 184
389 397 l389 388 49 -34 c149 -108 355 -97 488 24 57 53 107 139 123 214 21
97 -9 224 -72 307 l-34 44 288 287 c158 158 290 287 293 287 3 0 9 -26 12 -57
4 -32 22 -105 41 -163 171 -534 730 -841 1284 -704 131 33 316 127 409 208
156 135 271 300 331 473 68 196 75 434 20 644 -35 132 -136 315 -234 424 -25
28 -46 52 -46 55 0 3 29 16 64 28 151 54 322 185 453 345 73 90 167 290 186
397 5 23 7 38 22 125 6 37 7 211 1 245 -3 14 -7 41 -10 60 -11 68 -17 93 -38
154 -129 380 -449 652 -848 721 -70 13 -257 12 -335 -1z m300 -389 c51 -10
114 -32 172 -61 278 -138 425 -444 359 -753 -46 -219 -223 -419 -433 -492 -87
-30 -117 -34 -243 -33 -81 0 -133 6 -175 18 -242 74 -421 265 -474 509 -105
479 312 905 794 812z m-1738 -425 c216 -59 385 -217 459 -428 29 -85 35 -119
38 -213 10 -332 -233 -626 -564 -682 -570 -97 -991 515 -699 1015 153 261 471
389 766 308z m1360 -1371 c220 -55 374 -194 474 -424 61 -142 46 -383 -34
-541 -183 -361 -643 -482 -982 -259 -183 121 -292 317 -300 540 -4 89 0 126
18 200 38 153 163 322 300 404 73 43 165 80 219 87 24 4 45 8 48 11 11 11 193
-1 257 -18z"/>
</g>
</svg>
